<svg xmlns="http://www.w3.org/2000/svg" xmlns:xlink="http://www.w3.org/1999/xlink" version="1.2" baseProfile="tiny" x="0px" y="0px" viewBox="0 0 56.693 70.86625" xml:space="preserve"><path d="M6.246,28.368c0-0.729,0.308-1.304,0.925-1.724l11.062-7.235c0.14-0.112,0.35-0.168,0.631-0.168  c0.476,0,0.932,0.21,1.367,0.631c0.434,0.421,0.652,0.911,0.652,1.472c0,0.533-0.211,0.94-0.633,1.22l-8.872,5.804l8.872,5.805  c0.422,0.225,0.633,0.631,0.633,1.22c0,0.561-0.217,1.045-0.652,1.451c-0.435,0.407-0.891,0.61-1.367,0.61  c-0.281,0-0.491-0.056-0.631-0.168L7.171,30.05C6.554,29.629,6.246,29.069,6.246,28.368z M23.208,41.083  c-0.037-0.221-0.031-0.435,0.019-0.643l7.715-25.136c0.137-0.535,0.509-0.854,1.118-0.957c0.442-0.075,0.869,0.009,1.28,0.252  c0.411,0.244,0.654,0.587,0.728,1.029c0.042,0.249,0.024,0.48-0.053,0.692l-7.695,25.004c-0.16,0.567-0.572,0.907-1.235,1.02  c-0.471,0.08-0.884-0.014-1.242-0.28C23.485,41.797,23.274,41.47,23.208,41.083z M36.504,36.843  c-0.435-0.406-0.652-0.89-0.652-1.451c0-0.561,0.196-0.967,0.589-1.22l8.875-5.805l-8.875-5.804  c-0.393-0.309-0.589-0.715-0.589-1.22c0-0.561,0.217-1.051,0.652-1.472c0.435-0.421,0.89-0.631,1.367-0.631  c0.252,0,0.448,0.057,0.589,0.168l11.062,7.235c0.616,0.421,0.925,0.996,0.925,1.724c0,0.73-0.309,1.29-0.925,1.683L38.46,37.285  c-0.141,0.112-0.337,0.168-0.589,0.168C37.394,37.453,36.939,37.25,36.504,36.843z"/><text x="0" y="71.693" fill="#000000" font-size="5px" font-weight="bold" font-family="'Helvetica Neue', Helvetica, Arial-Unicode, Arial, Sans-serif">Created by Jean-Philippe Cabaroc</text><text x="0" y="76.693" fill="#000000" font-size="5px" font-weight="bold" font-family="'Helvetica Neue', Helvetica, Arial-Unicode, Arial, Sans-serif">from the Noun Project</text></svg>