<svg xmlns="http://www.w3.org/2000/svg" xmlns:xlink="http://www.w3.org/1999/xlink" viewBox="0 0 100 125" version="1.1" x="0px" y="0px"><title>1</title><desc>Created with Sketch.</desc><g stroke="none" stroke-width="1" fill="none" fill-rule="evenodd"><g fill="#000000"><path d="M57.6857679,64.8865882 C57.6857679,66.5952157 56.3001907,67.9852157 54.5969998,67.9852157 L53.8720588,67.9852157 C52.1688679,67.9852157 50.7834861,66.5952157 50.7834861,64.8865882 L50.7834861,62.5056078 L57.6857679,62.5056078 L57.6857679,64.8865882 Z M54.234627,26.7828627 C46.1138816,26.7828627 39.507127,33.4107059 39.507127,41.5573725 C39.507127,43.7222745 39.9646861,45.8105098 40.8626043,47.7540392 L46.8743952,60.9595294 L46.8743952,64.8865882 C46.8743952,68.7575686 50.0135907,71.9067843 53.8720588,71.9067843 L54.5969998,71.9067843 C58.4554679,71.9067843 61.5948588,68.7575686 61.5948588,64.8865882 L61.5948588,60.9595294 L67.6019588,47.7638431 C68.5045679,45.8105098 68.9619316,43.7222745 68.9619316,41.5573725 C68.9619316,33.4107059 62.3553725,26.7828627 54.234627,26.7828627 L54.234627,26.7828627 Z M74.5017388,74.2011765 C74.2077752,74.5539216 74.0467207,74.9990196 74.0467207,75.4590196 L74.0467207,96.0784314 L39.4049434,96.0784314 L39.4049434,79.1076471 C39.4049434,78.5384314 39.1582798,77.9970588 38.7290616,77.6247059 C38.2998434,77.2523529 37.7306798,77.0847059 37.1687479,77.1672549 L26.3100752,78.752549 C25.0908298,78.8723529 23.9220116,78.4835294 23.0133434,77.6568627 C22.0962707,76.8219608 21.5966888,75.6782353 21.606657,74.4358824 C21.6074388,74.3345098 21.6004025,74.2331373 21.5855479,74.1327451 L19.5733434,60.5088235 C19.4312479,59.547451 18.6087752,58.8354902 17.639907,58.8354902 L13.8199434,58.8354902 C12.7756298,58.8354902 11.8384252,58.294902 11.3132388,57.3896078 C10.7876616,56.4843137 10.7819934,55.3998039 11.2977979,54.4888235 L19.2045207,40.522549 C19.4791343,40.1658824 19.6270934,39.7194118 19.611457,39.2564706 C19.5960161,38.8003922 19.5887843,38.4239216 19.5887843,38.0719608 C19.5887843,19.2413725 34.8600388,3.92156863 53.6307116,3.92156863 C72.8032388,3.92156863 89.0007525,19.5605882 89.0007525,38.0719608 C89.0007525,49.1023529 83.038607,63.9592157 74.5017388,74.2011765 M81.0952025,11.1170588 C73.6937298,4.05196078 63.6833298,0 53.6307116,0 C32.7043707,0 15.6796934,17.0790196 15.6796934,38.0719608 C15.6796934,38.3015686 15.6822343,38.5380392 15.6879025,38.7933333 L7.89864794,52.5521569 C6.68780703,54.6909804 6.70129339,57.2368627 7.93480703,59.362549 C9.16812521,61.4880392 11.3681616,62.7570588 13.8199434,62.7570588 L15.9535252,62.7570588 L17.697957,74.5672549 C17.7249298,76.8484314 18.6990752,79.025098 20.3866298,80.5609804 C22.1142525,82.1335294 24.436057,82.8939216 26.7549298,82.6490196 C26.7805343,82.6462745 26.8061388,82.6431373 26.8313525,82.6394118 L35.4958525,81.3743137 L35.4958525,98.0392157 C35.4958525,99.1221569 36.3709025,100 37.4503979,100 L76.0012661,100 C77.0805661,100 77.9558116,99.1221569 77.9558116,98.0392157 L77.9558116,76.1637255 C86.7848843,65.2986275 92.9098434,49.7411765 92.9098434,38.0719608 C92.9098434,27.9621569 88.7140207,18.3892157 81.0952025,11.1170588 M54.2345879,20.9928824 C55.3138879,20.9928824 56.1891334,20.1150392 56.1891334,19.032098 L56.1891334,14.1250392 C56.1891334,13.042098 55.3138879,12.1642549 54.2345879,12.1642549 C53.1552879,12.1642549 52.2800425,13.042098 52.2800425,14.1250392 L52.2800425,19.032098 C52.2800425,20.1150392 53.1552879,20.9928824 54.2345879,20.9928824 M73.9710993,20.5204902 C73.2015948,19.7606863 71.9639766,19.7710784 71.2069811,20.5428431 L67.7763629,24.0402941 C67.0193675,24.8122549 67.0291402,26.0536275 67.7986448,26.8132353 C68.1791948,27.1891176 68.6742811,27.3763725 69.1693675,27.3763725 C69.6750084,27.3763725 70.1800629,27.1808824 70.5627629,26.7908824 L73.9933811,23.2934314 C74.7503766,22.5216667 74.7406038,21.280098 73.9710993,20.5204902 M79.7377707,38.5136471 L74.8465207,38.5136471 C73.7670252,38.5136471 72.8919752,39.3914902 72.8919752,40.4744314 C72.8919752,41.5573725 73.7670252,42.4352157 74.8465207,42.4352157 L79.7377707,42.4352157 C80.8170707,42.4352157 81.6923161,41.5573725 81.6923161,40.4744314 C81.6923161,39.3914902 80.8170707,38.5136471 79.7377707,38.5136471 M40.6928716,24.0403333 L37.2620579,20.5428824 C36.5046716,19.7713137 35.2676398,19.7607255 34.4981352,20.5205294 C33.7286307,21.2801373 33.7186625,22.5215098 34.4756579,23.2934706 L37.9064716,26.7909216 C38.2891716,27.1809216 38.7942261,27.3764118 39.299867,27.3764118 C39.7945625,27.3764118 40.2898443,27.1889608 40.6705898,26.8132745 C41.4398988,26.0536667 41.449867,24.8122941 40.6928716,24.0403333 M33.6227138,38.5136471 L28.7314638,38.5136471 C27.6519684,38.5136471 26.7769184,39.3914902 26.7769184,40.4744314 C26.7769184,41.5573725 27.6519684,42.4352157 28.7314638,42.4352157 L33.6227138,42.4352157 C34.7020138,42.4352157 35.5772593,41.5573725 35.5772593,40.4744314 C35.5772593,39.3914902 34.7020138,38.5136471 33.6227138,38.5136471"/></g></g><text x="0" y="115" fill="#000000" font-size="5px" font-weight="bold" font-family="'Helvetica Neue', Helvetica, Arial-Unicode, Arial, Sans-serif">Created by AomAm</text><text x="0" y="120" fill="#000000" font-size="5px" font-weight="bold" font-family="'Helvetica Neue', Helvetica, Arial-Unicode, Arial, Sans-serif">from the Noun Project</text></svg>