<svg xmlns="http://www.w3.org/2000/svg" xmlns:xlink="http://www.w3.org/1999/xlink" version="1.1" x="0px" y="0px" viewBox="0 0 65 81.25" enable-background="new 0 0 65 65" xml:space="preserve"><g><path d="M13.4,10.2c1.3,0,2.3-0.9,2.6-2h10.8c-1.2,0.7-2.2,1.6-3.1,2.6c-1.7,2-2.6,4.6-2.6,7.2c0,0.3,0,0.5,0,0.8l1.5-0.1   c0-0.2,0-0.5,0-0.7c0-2.3,0.8-4.5,2.2-6.2c1.2-1.5,2.8-2.6,4.6-3.2v1.8h6V8.6c1.8,0.6,3.4,1.7,4.6,3.2c1.4,1.8,2.2,4,2.2,6.2h0   c0,0.2,0,0.5,0,0.7l1.5,0.1c0-0.3,0-0.5,0-0.8h0c0-2.6-0.9-5.2-2.6-7.2c-0.9-1.1-1.9-1.9-3.1-2.6H49c0.3,1.2,1.4,2,2.6,2   c1.5,0,2.8-1.2,2.8-2.8c0-1.5-1.2-2.8-2.8-2.8c-1.3,0-2.3,0.9-2.6,2H35.5V4.5h-6v2.3H16c-0.3-1.2-1.4-2-2.6-2   c-1.5,0-2.8,1.2-2.8,2.8C10.6,9,11.9,10.2,13.4,10.2z M51.6,6.2c0.7,0,1.3,0.6,1.3,1.3c0,0.7-0.6,1.3-1.3,1.3   c-0.7,0-1.3-0.6-1.3-1.3C50.4,6.8,50.9,6.2,51.6,6.2z M31,6h3v3h-3V6z M13.4,6.2c0.7,0,1.3,0.6,1.3,1.3c0,0.7-0.6,1.3-1.3,1.3   c-0.7,0-1.3-0.6-1.3-1.3C12.1,6.8,12.7,6.2,13.4,6.2z"/><path d="M41.4,28.8c-4-3.8-6.8-7.8-8.1-11.6l-0.7-2.1l-0.7,2.1c-1.3,3.8-4.1,7.8-8.1,11.6l-0.4,0.4l4.4,8.9h-2.1v4.5h13.9v-4.5   h-2.1l4.4-8.9L41.4,28.8z M32.5,26c0.6,0,1,0.5,1,1c0,0.6-0.5,1-1,1c-0.6,0-1-0.5-1-1C31.5,26.5,31.9,26,32.5,26z M38,39.6v1.5H27   v-1.5h1.4h8.2H38z M35.7,38.1h-6.3l-4.3-8.6c2.9-2.8,5.1-5.7,6.7-8.5v3.7c-1,0.3-1.8,1.3-1.8,2.4c0,1.4,1.1,2.5,2.5,2.5   c1.4,0,2.5-1.1,2.5-2.5c0-1.1-0.8-2.1-1.8-2.4V21c1.5,2.9,3.8,5.7,6.7,8.5L35.7,38.1z"/><path d="M62.5,11.9H45.7v1.5h16.8c0.7,0,1.3,0.6,1.3,1.3v32H1.3v-32c0-0.7,0.6-1.3,1.3-1.3h16.8v-1.5H2.5c-1.5,0-2.8,1.2-2.8,2.8   V50c0,1.5,1.2,2.8,2.8,2.8h20.6V59h-3.7v1.5h26.3V59h-3.7v-6.3h20.6c1.5,0,2.8-1.2,2.8-2.8V14.6C65.3,13.1,64,11.9,62.5,11.9z    M40.4,59H24.6v-6.3h15.8V59z M62.5,51.3h-60c-0.7,0-1.3-0.6-1.3-1.3v-1.9h62.5V50C63.8,50.7,63.2,51.3,62.5,51.3z"/><path d="M25.5,25c-0.2-0.2-0.3-0.3-0.5-0.5l-1.1,1c0.2,0.2,0.4,0.4,0.5,0.6L25.5,25z"/><path d="M21.4,20.3c0.1,0.5,0.2,1,0.4,1.4l1.4-0.5c-0.1-0.4-0.2-0.8-0.3-1.2L21.4,20.3z"/><path d="M24.3,23.5c-0.2-0.3-0.4-0.7-0.6-1.1L22.3,23c0.2,0.4,0.5,0.9,0.7,1.3L24.3,23.5z"/><path d="M42.7,23l-1.3-0.7c-0.2,0.4-0.4,0.8-0.6,1.1l1.2,0.8C42.2,23.9,42.5,23.5,42.7,23z"/><path d="M43.6,20.3L42.2,20c-0.1,0.4-0.2,0.8-0.3,1.2l1.4,0.5C43.4,21.2,43.5,20.8,43.6,20.3z"/><path d="M41.1,25.5l-1.1-1c-0.2,0.2-0.3,0.3-0.5,0.5l1.1,1.1C40.7,25.9,40.9,25.7,41.1,25.5z"/></g><text x="0" y="80" fill="#000000" font-size="5px" font-weight="bold" font-family="'Helvetica Neue', Helvetica, Arial-Unicode, Arial, Sans-serif">Created by Creative Stall</text><text x="0" y="85" fill="#000000" font-size="5px" font-weight="bold" font-family="'Helvetica Neue', Helvetica, Arial-Unicode, Arial, Sans-serif">from the Noun Project</text></svg>