<svg xmlns="http://www.w3.org/2000/svg" xmlns:xlink="http://www.w3.org/1999/xlink" version="1.1" x="0px" y="0px" viewBox="0 0 100 125" enable-background="new 0 0 100 100" xml:space="preserve"><g display="none"><rect x="-180.877" y="-37.172" display="inline" fill="#000000" width="1370.931" height="877.172"/></g><g><g><path d="M27.091,35.781c4.908,0,8.886-3.979,8.886-8.886s-3.979-8.886-8.886-8.886s-8.886,3.979-8.886,8.886    S22.183,35.781,27.091,35.781z M27.091,21.009c3.246,0,5.886,2.641,5.886,5.886s-2.641,5.886-5.886,5.886    s-5.886-2.641-5.886-5.886S23.846,21.009,27.091,21.009z"/><path d="M17.658,70.982v14.034c0,3.203,2.597,5.8,5.8,5.8h7.268c3.203,0,5.8-2.597,5.8-5.8V70.982    c1.27-0.229,2.387-0.884,3.227-1.797v15.389c0,3.447,2.795,6.242,6.242,6.242h8.014c3.447,0,6.241-2.794,6.241-6.241v-15.39    c0.84,0.913,1.957,1.568,3.227,1.797v14.034c0,3.203,2.597,5.8,5.8,5.8h7.268c3.203,0,5.8-2.597,5.8-5.8V70.982    c2.708-0.488,4.769-2.862,4.769-5.708V50.015c0-5.941-4.816-10.757-10.757-10.757h-6.891c-0.184,0-0.367,0.005-0.549,0.015    c-0.809,0.044-1.45,0.695-1.45,1.505v0c0,0.857,0.715,1.544,1.571,1.493c0.142-0.008,0.285-0.013,0.429-0.013h6.891    c4.284,0,7.757,3.473,7.757,7.757v15.259c0,1.546-1.254,2.8-2.8,2.8h-1.969v16.942c0,1.546-1.254,2.8-2.8,2.8h-7.268    c-1.546,0-2.8-1.254-2.8-2.8V68.073h-1.969c-0.504,0-0.971-0.145-1.38-0.379c1.446-1.144,2.381-2.907,2.381-4.89v-1.368V45.978    c0-4.094-2.116-7.699-5.309-9.792c-1.841-1.207-4.037-1.916-6.399-1.916h-7.599c-3.744,0-7.075,1.773-9.219,4.517    c-1.553,1.987-2.488,4.479-2.488,7.191v16.826c0,1.523,0.553,2.915,1.463,4c0.275,0.328,0.583,0.625,0.919,0.89    c-0.409,0.234-0.876,0.379-1.381,0.379h-1.969v16.942c0,1.546-1.254,2.8-2.8,2.8h-7.268c-1.546,0-2.8-1.254-2.8-2.8V68.073h-1.969    c-1.546,0-2.8-1.254-2.8-2.8V50.015c0-4.284,3.473-7.757,7.757-7.757h6.891c0.22,0,0.437,0.009,0.652,0.027    c0.892,0.075,1.67-0.59,1.67-1.486v0c0-0.762-0.569-1.42-1.327-1.493c-0.327-0.032-0.659-0.048-0.995-0.048h-6.891    c-5.941,0-10.757,4.816-10.757,10.757v15.259C12.889,68.12,14.95,70.494,17.658,70.982z M37.493,45.978    c0-4.801,3.906-8.708,8.708-8.708h7.599c4.801,0,8.708,3.906,8.708,8.708v16.826c0,1.788-1.454,3.242-3.241,3.242h-2.018v18.528    c0,1.788-1.454,3.242-3.241,3.242h-8.014c-1.788,0-3.242-1.454-3.242-3.242V66.046h-2.017c-1.787,0-3.241-1.454-3.241-3.242    V45.978z"/><path d="M72.909,35.781c4.908,0,8.886-3.979,8.886-8.886s-3.979-8.886-8.886-8.886s-8.886,3.979-8.886,8.886    S68.001,35.781,72.909,35.781z M72.909,21.009c3.246,0,5.886,2.641,5.886,5.886s-2.641,5.886-5.886,5.886    s-5.886-2.641-5.886-5.886S69.663,21.009,72.909,21.009z"/><path d="M50,31.782c6.23,0,11.299-5.069,11.299-11.299c0-6.23-5.069-11.299-11.299-11.299c-6.23,0-11.299,5.069-11.299,11.299    C38.701,26.714,43.77,31.782,50,31.782z M50,12.184c4.576,0,8.299,3.723,8.299,8.299S54.576,28.782,50,28.782    s-8.299-3.723-8.299-8.299S45.424,12.184,50,12.184z"/></g></g><text x="0" y="115" fill="#000000" font-size="5px" font-weight="bold" font-family="'Helvetica Neue', Helvetica, Arial-Unicode, Arial, Sans-serif">Created by Oksana Latysheva</text><text x="0" y="120" fill="#000000" font-size="5px" font-weight="bold" font-family="'Helvetica Neue', Helvetica, Arial-Unicode, Arial, Sans-serif">from the Noun Project</text></svg>