<?xml version="1.0" encoding="utf-8"?>
<!-- Generator: Adobe Illustrator 21.1.0, SVG Export Plug-In . SVG Version: 6.00 Build 0)  -->
<svg version="1.1" id="Layer_1" xmlns="http://www.w3.org/2000/svg" xmlns:xlink="http://www.w3.org/1999/xlink" x="0px" y="0px"
	 viewBox="0 0 100 125" style="enable-background:new 0 0 100 125;" xml:space="preserve">
<style type="text/css">
	.st0{fill:#0D3D51;}
	.st1{font-family:'HelveticaNeue-Bold';}
	.st2{font-size:5px;}
</style>
<path class="st0" d="M92.9,93.3H49.5c-1,0-1.8-0.8-1.8-1.8V81.3c0-0.1,0-0.2,0-0.2c0-0.3,1-5.9,10.3-7.6c-2.1-2.4-5.8-6.9-3.3-12.7
	c1.4-3.3,9.4-7.9,11.8-9.2c1.2-0.7,1.9-1.7,2.3-2.8c-1.3,0.8-2.7,1.2-3.8,0.8c-2.1-0.8-3.3-0.5-3.9-0.1c0.1,0.7-0.1,1.4-0.6,2
	c-1.3,1.5-3.7,0.7-5.8-0.2c-4.1-1.8-4.1-6.7-3.5-9.3c0.1-0.4,0.3-0.7,0.6-1l7.7-6.2l0.3-2.2c0.1-0.4,0.2-0.8,0.5-1
	c0.2-0.2,2.4-2.3,3.6-3c1.2-0.8,2.4-1.2,3.4-1.4l-0.1-3.4c0-0.5,0.2-1,0.6-1.3s0.9-0.5,1.3-0.5c0.6,0,14,1.3,20.7,12.1
	c5,8,5.1,17.7,0.3,27.2c-1.2,2.3-2.3,4.1-3.3,5.5c-2.1,3.1-2,3.3-1.2,4.2c0.5,0.5,1.5,1.2,2.5,1.9c0.9,0.6,1.9,1.3,2.7,2
	c3.6,3,3.6,6.1,3.5,6.9l0,9.9C94.6,92.5,93.9,93.3,92.9,93.3z M51.3,89.8h39.9l0-6.6H51.3V89.8z M52.4,79.7h38.4
	c-0.6-1.9-6.7-5.7-7.5-6.5c-2.7-3.1-1-5.8,0.9-8.5c0.9-1.3,2-3,3.1-5.1c4.2-8.4,4.1-16.9-0.2-23.8c-4.4-7.1-12.4-9.4-16.1-10.1
	l0.1,2.9c0,0.5-0.2,0.9-0.5,1.3s-0.8,0.5-1.3,0.5c0,0-1.6,0-3.2,1c-0.6,0.4-1.8,1.4-2.7,2.2l-0.3,2.3c-0.1,0.4-0.3,0.8-0.6,1.1
	l-7.8,6.2c-0.2,1.2-0.3,3.9,1.6,4.7c0.6,0.2,1,0.4,1.3,0.5c0-0.2,0.1-0.3,0.2-0.5c0.1-0.2,2.3-3.9,8.4-1.8c0.7-0.1,2.4-1.3,3.8-2.6
	c0.5-0.5,1.2-0.6,1.8-0.4c0.6,0.2,1.1,0.8,1.1,1.4c0,0.3,0.8,7-4.6,10c-5.2,2.9-9.7,6.2-10.3,7.6c-1.6,3.6,0.4,6.4,2.8,9.1
	c1.2,1.4,2.2,2.5,1.6,3.9c-0.2,0.6-0.8,1.3-2.3,1.5C55.8,77.2,53.5,78.5,52.4,79.7z M42.1,93.3h-35c-1,0-1.7-0.8-1.8-1.7
	C5.2,80.6,6,80.3,7.1,79.9c0.5-0.2,1-0.3,1.5-0.4c0.2-0.7,0.4-1.6,0.6-2.2c1.4-4.2,4-6.7,5.4-7.8V46.2h-3.6c-1,0-1.8-0.8-1.8-1.8
	v-5.8c0-1,0.8-1.8,1.8-1.8h0.8v-4.1c0-1,0.8-1.8,1.8-1.8H14l-3.9-13.3c-0.2-0.5-0.1-1.1,0.3-1.5c0.3-0.4,0.9-0.7,1.4-0.7h10.9v-1.8
	h-2.1c-1,0-1.8-0.8-1.8-1.8s0.8-1.8,1.8-1.8h2.1V8.4c0-1,0.8-1.8,1.8-1.8s1.8,0.8,1.8,1.8v1.9h2.1c1,0,1.8,0.8,1.8,1.8
	s-0.8,1.8-1.8,1.8h-2.1v1.8h11.5c0.5,0,1.1,0.3,1.4,0.7c0.3,0.4,0.4,1,0.3,1.5l-3.8,13.3h0.2c1,0,1.8,0.8,1.8,1.8v4.1h0.8
	c1,0,1.8,0.8,1.8,1.8v5.8c0,1-0.8,1.8-1.8,1.8h-3.7v23.3c1.4,1.1,4,3.5,5.3,7.7c0.2,0.7,0.4,1.5,0.5,2.3c1.2,0.2,1.6,0.5,1.8,0.6
	c0.6,0.5,1.3,1,1.5,11.4c0,0.5-0.2,0.9-0.5,1.3C43,93.1,42.6,93.3,42.1,93.3z M8.8,89.8h31.5c-0.1-2.8-0.3-5.6-0.5-6.9
	c-0.3,0-30.4,0-30.8,0C8.9,84.3,8.8,87.1,8.8,89.8z M12.3,79.4h24.6c-0.1-0.4-0.2-0.8-0.3-1.1c-1.1-3.4-3.3-5.4-4.2-6H16.9
	c-0.9,0.7-3.2,2.7-4.3,6.1C12.5,78.7,12.4,79,12.3,79.4z M18.2,68.7h13V46.2h-13V68.7z M12.8,42.7h23.8v-2.3H12.8V42.7z M15.4,36.9
	h18.7v-2.3H15.4V36.9z M17.7,31.1H32l3.5-12H14.2L17.7,31.1z"/>
<text transform="matrix(1 0 0 1 0 115)" class="st1 st2">Created by H Alberto Gongora</text>
<text transform="matrix(1 0 0 1 0 120)" class="st1 st2">from the Noun Project</text>
</svg>
