<svg xmlns="http://www.w3.org/2000/svg" xmlns:xlink="http://www.w3.org/1999/xlink" version="1.1" x="0px" y="0px" viewBox="0 0 100 125" enable-background="new 0 0 100 100" xml:space="preserve"><path d="M92.894,93.326H49.506c-0.967,0-1.75-0.784-1.75-1.75V81.251c0-0.083,0.006-0.167,0.018-0.25  c0.036-0.251,0.954-5.858,10.331-7.569c-2.081-2.429-5.809-6.878-3.259-12.713c1.437-3.288,9.399-7.911,11.806-9.249  c1.224-0.681,1.931-1.719,2.335-2.766c-1.333,0.766-2.683,1.175-3.806,0.766c-2.114-0.769-3.292-0.47-3.877-0.139  c0.07,0.669-0.068,1.376-0.588,1.953c-1.313,1.457-3.658,0.729-5.777-0.174c-4.114-1.754-4.149-6.672-3.521-9.302  c0.091-0.378,0.304-0.715,0.607-0.958l7.732-6.198l0.309-2.226c0.055-0.394,0.241-0.757,0.53-1.03  c0.242-0.23,2.406-2.27,3.601-3.042c1.23-0.796,2.431-1.199,3.371-1.402l-0.064-3.373c-0.009-0.495,0.191-0.971,0.553-1.31  s0.851-0.508,1.344-0.467c0.569,0.048,14.02,1.292,20.731,12.088c4.965,7.985,5.084,17.653,0.334,27.222  c-1.158,2.334-2.348,4.084-3.304,5.491c-2.077,3.056-1.999,3.301-1.174,4.25c0.46,0.529,1.52,1.248,2.544,1.943  c0.915,0.621,1.86,1.263,2.69,1.958c3.597,3.013,3.559,6.091,3.468,6.934l-0.046,9.897C94.639,92.548,93.856,93.326,92.894,93.326z   M51.256,89.826h39.896l0.031-6.647H51.256V89.826z M52.398,79.679h38.423c-0.556-1.898-6.716-5.659-7.475-6.531  c-2.732-3.141-0.958-5.75,0.92-8.514c0.896-1.318,2.011-2.959,3.063-5.079c4.19-8.442,4.13-16.901-0.172-23.818  c-4.394-7.067-12.434-9.418-16.116-10.146l0.055,2.876c0.009,0.48-0.18,0.942-0.521,1.279s-0.814,0.514-1.286,0.503  c0.001,0-1.569-0.007-3.191,1.043c-0.586,0.378-1.79,1.436-2.65,2.229l-0.319,2.301c-0.062,0.443-0.29,0.846-0.639,1.125  l-7.763,6.222c-0.164,1.178-0.318,3.91,1.585,4.721c0.556,0.237,0.993,0.396,1.331,0.504c0.036-0.161,0.094-0.315,0.175-0.455  c0.094-0.164,2.349-3.94,8.41-1.811c0.668-0.13,2.423-1.335,3.787-2.612c0.481-0.45,1.175-0.592,1.792-0.368  c0.619,0.224,1.06,0.776,1.141,1.43c0.035,0.282,0.797,6.952-4.595,9.951c-5.173,2.877-9.697,6.212-10.3,7.592  c-1.57,3.594,0.42,6.364,2.781,9.118c1.209,1.411,2.164,2.524,1.619,3.923c-0.229,0.586-0.805,1.321-2.255,1.495  C55.806,77.182,53.549,78.53,52.398,79.679z M42.104,93.326H7.059c-0.957,0-1.736-0.769-1.75-1.726  c-0.155-11.017,0.656-11.32,1.778-11.74c0.469-0.175,1.025-0.285,1.525-0.353c0.194-0.719,0.443-1.606,0.64-2.214  c1.353-4.178,4.031-6.692,5.403-7.76V46.201h-3.566c-0.967,0-1.75-0.784-1.75-1.75V38.65c0-0.966,0.783-1.75,1.75-1.75h0.776v-4.051  c0-0.966,0.783-1.75,1.75-1.75h0.393l-3.869-13.257c-0.154-0.529-0.051-1.1,0.279-1.54c0.331-0.441,0.85-0.7,1.4-0.7h10.923v-1.806  H20.6c-0.967,0-1.75-0.784-1.75-1.75s0.783-1.75,1.75-1.75h2.142V8.424c0-0.966,0.783-1.75,1.75-1.75s1.75,0.784,1.75,1.75v1.872  h2.141c0.967,0,1.75,0.784,1.75,1.75s-0.783,1.75-1.75,1.75h-2.141v1.806h11.532c0.55,0,1.068,0.259,1.398,0.698  c0.331,0.439,0.436,1.009,0.283,1.537l-3.83,13.262h0.226c0.967,0,1.75,0.784,1.75,1.75V36.9h0.776c0.967,0,1.75,0.784,1.75,1.75  v5.801c0,0.966-0.783,1.75-1.75,1.75H34.68v23.325c1.362,1.05,3.97,3.505,5.284,7.689c0.21,0.67,0.395,1.544,0.529,2.273  c1.222,0.161,1.64,0.495,1.826,0.644c0.645,0.514,1.254,1,1.534,11.396c0.013,0.472-0.166,0.93-0.495,1.268  C43.029,93.135,42.577,93.326,42.104,93.326z M8.797,89.826h31.499c-0.106-2.757-0.284-5.566-0.473-6.886  c-0.262-0.024-30.433-0.005-30.773,0.042C8.882,84.296,8.797,87.098,8.797,89.826z M12.274,79.397h24.634  c-0.088-0.417-0.185-0.819-0.283-1.133c-1.075-3.421-3.273-5.358-4.181-6.04H16.899c-0.93,0.708-3.208,2.721-4.317,6.148  C12.49,78.657,12.383,79.019,12.274,79.397z M18.155,68.724H31.18V46.201H18.155V68.724z M12.839,42.701h23.788V40.4H12.839V42.701z   M15.365,36.9h18.735v-2.301H15.365V36.9z M17.653,31.099h14.328l3.465-11.998H14.152L17.653,31.099z"/><text x="0" y="115" fill="#000000" font-size="5px" font-weight="bold" font-family="'Helvetica Neue', Helvetica, Arial-Unicode, Arial, Sans-serif">Created by H Alberto Gongora</text><text x="0" y="120" fill="#000000" font-size="5px" font-weight="bold" font-family="'Helvetica Neue', Helvetica, Arial-Unicode, Arial, Sans-serif">from the Noun Project</text></svg>