<?xml version="1.0" encoding="utf-8"?>
<!-- Generator: Adobe Illustrator 21.1.0, SVG Export Plug-In . SVG Version: 6.00 Build 0)  -->
<svg version="1.1" id="Layer_1" xmlns="http://www.w3.org/2000/svg" xmlns:xlink="http://www.w3.org/1999/xlink" x="0px" y="0px"
	 viewBox="0 0 58 66.6" style="enable-background:new 0 0 58 66.6;" xml:space="preserve">
<style type="text/css">
	.st0{fill:#0D3D51;}
	.st1{font-family:'HelveticaNeue-Bold';}
	.st2{font-size:5px;}
	.st3{enable-background:new    ;}
</style>
<g>
	<path class="st0" d="M49.3,27.9c-1.1-1.1-3.1-1.1-4.2,0L29.7,43.3L27.5,51L27,51.6c-0.4,0.4-0.4,1,0,1.4l0,0l0,0
		c0.2,0.2,0.5,0.3,0.7,0.3c0.3,0,0.5-0.1,0.7-0.3l0.5-0.5l7.8-2.1l15.4-15.4c1.2-1.2,1.2-3.1,0-4.2L49.3,27.9z M32,43.8l10.2-10.2
		l4.2,4.2L36.2,48L32,43.8z M31.1,45.7l3.2,3.2l-4.4,1.2L31.1,45.7z M50.7,33.5l-2.8,2.8l-4.2-4.2l2.8-2.8c0.4-0.4,1-0.4,1.4,0
		l2.8,2.8C51.1,32.5,51.1,33.1,50.7,33.5z"/>
	<path class="st0" d="M37,23c0-0.3-0.2-0.7-0.5-0.8l-11-7c-0.3-0.2-0.7-0.2-1,0C24.2,15.3,24,15.6,24,16v14c0,0.4,0.2,0.7,0.5,0.9
		C24.7,31,24.8,31,25,31c0.2,0,0.4,0,0.5-0.2l11-7C36.8,23.7,37,23.3,37,23z M26,28.2V17.8l8.1,5.2L26,28.2z"/>
	<path class="st0" d="M57,0H47H11H1C0.4,0,0,0.4,0,1v11v11v11v11c0,0.5,0.4,1,1,1h10h12c0.5,0,1-0.5,1-1s-0.5-1-1-1H12V34V23V12V2
		h34v10v11c0,0.5,0.5,1,1,1h9v8c0,0.5,0.5,1,1,1s1-0.5,1-1v-9V12V1C58,0.4,57.5,0,57,0z M2,24h8v9H2V24z M10,22H2v-9h8V22z M2,44v-9
		h8v9H2z M10,11H2V2h8V11z M56,2v9h-8V2H56z M48,22v-9h8v9H48z"/>
</g>
<text transform="matrix(1 0 0 1 0 68.27)" class="st1 st2">Created by Ben Davis</text>
<text transform="matrix(1 0 0 1 0 73.27)" class="st1 st2">from the Noun Project</text>
</svg>
