<svg xmlns="http://www.w3.org/2000/svg" xmlns:xlink="http://www.w3.org/1999/xlink" version="1.1" x="0px" y="0px" viewBox="0 0 100 125" style="enable-background:new 0 0 100 100;" xml:space="preserve"><style type="text/css">
	.st0{fill:#020202;}
	.st1{fill:none;}
	.st2{fill:#010101;}
	.st3{fill:none;stroke:#010101;stroke-width:2.5;stroke-miterlimit:10;}
	.st4{fill:#020202;stroke:#010101;stroke-width:0.5;stroke-linecap:round;stroke-linejoin:round;}
</style><path class="st0" d="M54.5,31.4h-6v15.8h6V31.4z M52.8,37.9h-2.6v-4.7h2.6V37.9z"/><path class="st0" d="M46.3,26.6h-6v20.7h6V26.6z M44.7,32.7H42v-4.3h2.6V32.7z"/><path class="st1" d="M82.3,18.5H16.7v39.9h65.6V18.5z M32.2,41.1H38v6.6h-5.7V41.1z"/><rect x="33.8" y="42.7" class="st1" width="2.6" height="2.5"/><polygon class="st1" points="37.1,72.3 35.7,75.8 61.9,75.8 60.5,72.3 "/><path class="st1" d="M16.1,62L8,81.5h83L82.9,62H16.1z M65,76.3c0,1.2-1.1,2.2-2.3,2.2H35c-1.3,0-2.3-1-2.3-2.2V76h-0.1l1.9-4.7  c0.2-1,1.1-1.8,2.3-1.8h24c1.2,0,2.1,0.8,2.3,1.8L65,76V76.3z"/><path class="st2" d="M86,59.4v-37v-4.8c0-1.4-1.3-2.5-2.9-2.5H15.9c-1.5,0-2.8,1.1-2.8,2.5v7.5v34.3c0,0.1,0,0.3,0,0.4L3.9,82v0.3  c0,1.4,1.2,2.6,2.7,2.6h85.9c1.5,0,2.7-1.2,2.7-2.6V82L86,59.8C86,59.7,86,59.5,86,59.4z M16.7,18.5h65.6v39.9H16.7V18.5z M91,81.5  H8L16.1,62h66.8L91,81.5z"/><path class="st2" d="M60.8,69.5h-24c-1.2,0-2.1,0.8-2.3,1.8L32.6,76h0.1v0.3c0,1.2,1,2.2,2.3,2.2h27.7c1.2,0,2.3-1,2.3-2.2V76  l-1.9-4.7C62.9,70.3,62,69.5,60.8,69.5z M35.7,75.8l1.4-3.5h23.4l1.4,3.5H35.7z"/><path class="st0" d="M38.1,35.8h-6v11.4h6V35.8z M36.4,41.4h-2.6v-3.9h2.6V41.4z"/><path class="st0" d="M70.7,38.7h-5.7v8.6h5.7V38.7z M69,44.7h-2.6v-4.5H69V44.7z"/><polygon class="st0" points="75.9,52.1 73.6,52.1 73.6,49.4 71.4,49.4 71.4,52.1 69.1,52.1 69.1,49.4 66.9,49.4 66.9,52.1   64.7,52.1 64.7,49.4 62.5,49.4 62.5,52.1 60.2,52.1 60.2,49.4 58.1,49.4 58.1,52.1 55.7,52.1 55.7,49.4 53.6,49.4 53.6,52.1   51.3,52.1 51.3,49.4 49.2,49.4 49.2,52.1 46.9,52.1 46.9,49.4 44.7,49.4 44.7,52.1 42.5,52.1 42.5,49.4 40.3,49.4 40.3,52.1   38,52.1 38,49.4 35.8,49.4 35.8,52.1 33.6,52.1 33.6,49.4 31.4,49.4 31.4,52.1 29.2,52.1 29.2,49.4 27,49.4 27,52.1 23.9,52.1   23.9,49 26.5,49 26.5,46.9 23.9,46.9 23.9,44.6 26.5,44.6 26.5,42.4 23.9,42.4 23.9,40.1 26.5,40.1 26.5,37.9 23.9,37.9 23.9,35.6   26.5,35.6 26.5,33.5 23.9,33.5 23.9,31.2 26.5,31.2 26.5,29 23.9,29 23.9,26.7 26.5,26.7 26.5,24.5 21.7,24.5 21.7,24.9 21.7,25.2   21.7,29 21.7,34.6 21.7,35.6 21.7,37.9 21.7,40.1 21.7,54.3 27,54.3 35.8,54.3 44.7,54.3 51.3,54.3 64.7,54.3 64.7,54.3 78,54.3   78,52.1 78,49.4 75.9,49.4 "/><path class="st0" d="M62.6,24.6h-6v22.7h6V24.6z M61,32.7h-2.6v-6.3H61V32.7z"/><text x="0" y="115" fill="#000000" font-size="5px" font-weight="bold" font-family="'Helvetica Neue', Helvetica, Arial-Unicode, Arial, Sans-serif">Created by MRFA</text><text x="0" y="120" fill="#000000" font-size="5px" font-weight="bold" font-family="'Helvetica Neue', Helvetica, Arial-Unicode, Arial, Sans-serif">from the Noun Project</text></svg>