<svg xmlns="http://www.w3.org/2000/svg" data-name="Layer 1" viewBox="0 0 40 50" x="0px" y="0px"><title>Artboard 7Media</title><path d="M30.75,33.12H9.25a2.37,2.37,0,0,1-2.37-2.37V9.25A2.37,2.37,0,0,1,9.25,6.88h21.5a2.37,2.37,0,0,1,2.37,2.37v21.5A2.37,2.37,0,0,1,30.75,33.12Zm-21.5-25A1.14,1.14,0,0,0,8.12,9.25v21.5a1.14,1.14,0,0,0,1.13,1.13h21.5a1.14,1.14,0,0,0,1.13-1.13V9.25a1.14,1.14,0,0,0-1.13-1.13Z"/><path d="M32.5,14.15H7.5a.63.63,0,0,1,0-1.25h25a.63.63,0,0,1,0,1.25Z"/><circle cx="10.57" cy="10.4" r="0.91"/><path d="M26.28,28.25H13.72a1.83,1.83,0,0,1-1.83-1.83V19.1a1.83,1.83,0,0,1,1.83-1.84H26.28a1.83,1.83,0,0,1,1.83,1.84v7.32A1.83,1.83,0,0,1,26.28,28.25ZM13.72,18.51a.58.58,0,0,0-.58.59v7.32a.58.58,0,0,0,.58.58H26.28a.58.58,0,0,0,.58-.58V19.1a.58.58,0,0,0-.58-.59Z"/><path d="M20,24.28a.6.6,0,0,1-.38-.13l-7.09-5.46a.63.63,0,0,1,.77-1L20,22.87l6.71-5.17a.61.61,0,0,1,.87.12.62.62,0,0,1-.11.87l-7.09,5.46A.6.6,0,0,1,20,24.28Z"/><circle cx="13.75" cy="10.4" r="0.91"/><circle cx="16.92" cy="10.4" r="0.91"/><text x="0" y="55" fill="#000000" font-size="5px" font-weight="bold" font-family="'Helvetica Neue', Helvetica, Arial-Unicode, Arial, Sans-serif">Created by Dan Elliott</text><text x="0" y="60" fill="#000000" font-size="5px" font-weight="bold" font-family="'Helvetica Neue', Helvetica, Arial-Unicode, Arial, Sans-serif">from the Noun Project</text></svg>