<svg xmlns="http://www.w3.org/2000/svg" xmlns:xlink="http://www.w3.org/1999/xlink" version="1.1" x="0px" y="0px" viewBox="0 0 29 37.5" xml:space="preserve"><g transform="translate(-30 -620)"><g xmlns="http://www.w3.org/2000/svg" xmlns:xlink="http://www.w3.org/1999/xlink"><path d="M57,636c0,5.305-3.327,9.837-8,11.648V648c0,0.272-0.056,0.532-0.154,0.77C54.161,646.955,58,641.923,58,636    c0-6.138-4.121-11.322-9.738-12.956c0.246,0.376,0.424,0.796,0.55,1.238C53.582,626.044,57,630.624,57,636z"/><path d="M40.154,648.77C40.056,648.532,40,648.272,40,648v-0.352c-4.673-1.812-8-6.344-8-11.648c0-5.376,3.418-9.956,8.188-11.718    c0.126-0.442,0.304-0.862,0.55-1.238C35.121,624.678,31,629.862,31,636C31,641.923,34.839,646.955,40.154,648.77z"/><path d="M54,636c0-2.83-1.251-5.368-3.221-7.109C50.918,629.234,51,629.606,51,630v0.534c1.246,1.479,2,3.386,2,5.466    c0,3.033-1.603,5.693-4,7.198v1.165C51.975,642.757,54,639.611,54,636z"/><path d="M35,636c0,3.611,2.025,6.757,5,8.363v-1.165c-2.397-1.505-4-4.165-4-7.198c0-2.08,0.754-3.986,2-5.466V630    c0-0.394,0.082-0.766,0.221-1.109C36.251,630.632,35,633.17,35,636z"/><path d="M41,625.5c0,0.98,0.405,1.865,1.055,2.5H41c-1.104,0-2,0.896-2,2v7c0,1.104,0.896,2,2,2v9c0,0.553,0.447,1,1,1h5    c0.553,0,1-0.447,1-1v-9c1.104,0,2-0.896,2-2v-7c0-1.104-0.896-2-2-2h-1.055c0.649-0.635,1.055-1.52,1.055-2.5    c0-1.934-1.566-3.5-3.5-3.5S41,623.566,41,625.5z M48,629c0.552,0,1,0.448,1,1v7c0,0.552-0.448,1-1,1v-6h-1v16h-2v-10h-1v10h-2    v-16h-1v6c-0.552,0-1-0.448-1-1v-7c0-0.552,0.448-1,1-1H48z M47,625.5c0,1.379-1.121,2.5-2.5,2.5s-2.5-1.121-2.5-2.5    s1.121-2.5,2.5-2.5S47,624.121,47,625.5z"/></g></g><text x="0" y="45" fill="#000000" font-size="5px" font-weight="bold" font-family="'Helvetica Neue', Helvetica, Arial-Unicode, Arial, Sans-serif">Created by Hea Poh Lin</text><text x="0" y="50" fill="#000000" font-size="5px" font-weight="bold" font-family="'Helvetica Neue', Helvetica, Arial-Unicode, Arial, Sans-serif">from the Noun Project</text></svg>