<svg xmlns="http://www.w3.org/2000/svg" xmlns:xlink="http://www.w3.org/1999/xlink" version="1.1" x="0px" y="0px" viewBox="0 0 128 160" style="enable-background:new 0 0 128 128;" xml:space="preserve"><path d="M104.5,86c-0.5,0-1,0-1.5-0.1v10.5c0,3.1-2.5,5.6-5.6,5.6H9.6C6.5,102,4,99.5,4,96.4V55.7C4,52.6,6.5,50,9.6,50h27  c1,0,6.5-0.3,13.2-6.5c5.6-5.1,9.1-8.3,14.7-13c4.6-3.9,8.1-4.5,8.7-4.6h24.3c3,0,5.6,2.8,5.6,6v7c1,1.1,1.7,2.5,2.1,3.9  c0.1,0.3,0.2,0.6,0.3,0.9c0.5,0,1.1,0.1,1.6,0.2V32c0-5.3-4.3-10-9.6-10H73c0,0-4.8,0.2-11.1,5.5c-5.7,4.8-9.3,8-14.8,13.1  C41.2,45.9,36.8,46,36.5,46l0,0h-27C4.3,46,0,50.4,0,55.7v40.8c0,5.3,4.3,9.6,9.6,9.6h87.9c5.3,0,9.6-4.3,9.6-9.6v-6.2  C105.9,89.1,105.1,87.6,104.5,86z"/><path d="M109.9,62.9c1,2.7-0.5,5.7-3.2,6.7s-5.7-0.5-6.7-3.2c-1-2.7,0.5-5.7,3.2-6.7C105.9,58.8,108.9,60.2,109.9,62.9z"/><path d="M125.6,63.2l-3.2-0.6c-0.1-1.3-0.4-2.6-0.9-3.8c-0.6-1.7-1.3-3.1-2.3-4.5l2.1-2.5c1.1-1.2,1.2-2.9-0.1-3.9l-2.8-2.4  c-1.2-1-3.2-1-4.3,0.2l-2.3,2.8c-2.6-1.1-5.5-1.6-8.4-1.4l-1.2-3.4c-0.5-1.5-1.9-2.4-3.4-1.9L95.4,43c-1.5,0.5-2.5,2.3-1.9,3.8  l1.2,3.5c-2.4,1.7-4.2,4-5.5,6.6l-3.4-0.6c-1.6-0.3-3.1,0.4-3.4,2l-0.7,3.6c-0.3,1.6,0.7,3.3,2.3,3.6l3.4,0.6c0.1,1.5,0.4,3,1,4.5  c0.5,1.4,1.2,2.7,2,3.9l-2,2.4c-1.1,1.2-1.2,2.9,0.1,3.9l2.8,2.4c1.2,1.1,3.2,1,4.3-0.2l2-2.4c2.8,1.3,5.9,1.9,9,1.6l1,2.7  c0.5,1.5,1.9,2.4,3.4,1.9l3.4-1.2c1.5-0.5,2.5-2.3,1.9-3.8l-1-2.8c2.6-1.8,4.5-4.3,5.8-7.1l2.9,0.5c1.6,0.3,3.1-0.4,3.4-2l0.7-3.6  C128.2,65.2,127.2,63.5,125.6,63.2z M109.1,76.3c-6.4,2.3-13.4-1.1-15.7-7.5c-2.3-6.4,1.1-13.4,7.5-15.7s13.4,1.1,15.7,7.5  C118.8,67,115.5,74,109.1,76.3z"/><path d="M41.8,29.6c6.3-5.3,11.1-5.5,11.1-5.5h6.3l-4,4H53c-0.6,0.1-4.1,0.7-8.7,4.6C40.6,35.8,35.1,41.2,32,44h-6  C30.6,39.8,36.7,33.9,41.8,29.6z"/><path d="M20.9,32.6C27,27.1,32,27.1,32,27.1h5.9c-1.1,0.6-4.2,3.3-4.8,4h-0.8c-0.6,0.1-4.4,0.4-8.7,4.6C20,39,18,41.2,15,43.9H9  C13.5,39.8,16,37,20.9,32.6z"/><text x="0" y="143" fill="#000000" font-size="5px" font-weight="bold" font-family="'Helvetica Neue', Helvetica, Arial-Unicode, Arial, Sans-serif">Created by Creative Mahira</text><text x="0" y="148" fill="#000000" font-size="5px" font-weight="bold" font-family="'Helvetica Neue', Helvetica, Arial-Unicode, Arial, Sans-serif">from the Noun Project</text></svg>