<svg xmlns:dc="http://purl.org/dc/elements/1.1/" xmlns:cc="http://creativecommons.org/ns#" xmlns:rdf="http://www.w3.org/1999/02/22-rdf-syntax-ns#" xmlns:svg="http://www.w3.org/2000/svg" xmlns="http://www.w3.org/2000/svg" xmlns:sodipodi="http://sodipodi.sourceforge.net/DTD/sodipodi-0.dtd" xmlns:inkscape="http://www.inkscape.org/namespaces/inkscape" version="1.1" x="0px" y="0px" viewBox="0 0 100 125"><g transform="translate(0,-952.36218)"><path style="text-indent:0;text-transform:none;direction:ltr;block-progression:tb;baseline-shift:baseline;color:#000000;enable-background:accumulate;" d="m 13,966.36218 c -3.3067001,0 -5.9999998,2.6933 -5.9999998,6 l 0,60.00002 c 0,3.3067 2.6932997,6 5.9999998,6 l 74,0 c 3.3067,0 6,-2.6933 6,-6 l 0,-60.00002 c 0,-3.3067 -2.6933,-6 -6,-6 l -74,0 z m 0,2 74,0 c 2.2333,0 4,1.7667 4,4 l 0,14 -82.0000002,0 0,-14 c 0,-2.2333 1.7667002,-4 4.0000002,-4 z m 5,5 c -2.1973,0 -4,1.8027 -4,4 0,2.1973 1.8027,4 4,4 2.1973,0 4,-1.8027 4,-4 0,-2.1973 -1.8027,-4 -4,-4 z m 13,0 c -2.1973,0 -4,1.8027 -4,4 0,2.1973 1.8027,4 4,4 2.1973,0 4,-1.8027 4,-4 0,-2.1973 -1.8027,-4 -4,-4 z m 13,0 c -2.1973,0 -4,1.8027 -4,4 0,2.1973 1.8027,4 4,4 2.1973,0 4,-1.8027 4,-4 0,-2.1973 -1.8027,-4 -4,-4 z m -26,2 c 1.1164,0 2,0.8835 2,2 0,1.1165 -0.8836,2 -2,2 -1.1164,0 -2,-0.8835 -2,-2 0,-1.1165 0.8836,-2 2,-2 z m 13,0 c 1.1164,0 2,0.8835 2,2 0,1.1165 -0.8836,2 -2,2 -1.1164,0 -2,-0.8835 -2,-2 0,-1.1165 0.8836,-2 2,-2 z m 13,0 c 1.1164,0 2,0.8835 2,2 0,1.1165 -0.8836,2 -2,2 -1.1164,0 -2,-0.8835 -2,-2 0,-1.1165 0.8836,-2 2,-2 z m -35.0000001,13 82.0000001,0 0,44.00002 c 0,2.2333 -1.7667,4 -4,4 l -74,0 c -2.2333,0 -4.0000002,-1.7667 -4.0000002,-4 l 0,-44.00002 z M 35,992.36219 c -0.8222,0.014 -1.2056,0.8858 -0.875,1.4688 L 45,1013.6122 l 0,17.75 c 0.01,0.6834 0.865,1.1953 1.4688,0.875 l 8,-4.0625 c 0.3256,-0.1728 0.5396,-0.5377 0.5312,-0.9063 l 0,-13.6562 10.875,-19.78122 c 0.3203,-0.6037 -0.1916,-1.463 -0.875,-1.4688 l -30,0 z m 1.6875,2 26.625,0 -10.1875,18.50001 c -0.084,0.152 -0.1277,0.3263 -0.125,0.5 l 0,13.3125 -6,3.0313 0,-16.3438 c 0,-0.1737 -0.041,-0.348 -0.125,-0.5 L 36.6875,994.36219 z" fill="#000000" fill-opacity="1" stroke="none" marker="none" visibility="visible" display="inline" overflow="visible"/></g><text x="0" y="115" fill="#000000" font-size="5px" font-weight="bold" font-family="'Helvetica Neue', Helvetica, Arial-Unicode, Arial, Sans-serif">Created by Aybige</text><text x="0" y="120" fill="#000000" font-size="5px" font-weight="bold" font-family="'Helvetica Neue', Helvetica, Arial-Unicode, Arial, Sans-serif">from the Noun Project</text></svg>