<svg xmlns="http://www.w3.org/2000/svg" xmlns:xlink="http://www.w3.org/1999/xlink" version="1.1" x="0px" y="0px" viewBox="0 0 100 125" style="enable-background:new 0 0 100 100;" xml:space="preserve"><style type="text/css">
	.st0{fill:none;stroke:#000000;stroke-width:2;stroke-linecap:round;stroke-linejoin:round;stroke-miterlimit:10;}
</style><path class="st0" d="M68.4,15.3h5c3.6,0,6.5,2.9,6.5,6.5v61.3c0,3.6-2.9,6.5-6.5,6.5H26.6c-3.6,0-6.5-2.9-6.5-6.5V62.5  c0-0.7,0.3-1.5,0.8-2l45.4-44.4C66.8,15.6,67.6,15.3,68.4,15.3z"/><path class="st0" d="M22.6,58.4V25.3c0-1.6,1.3-3,3-3h33.9"/><path class="st0" d="M64.1,17.5H30.2c-1.6,0-3,1.3-3,3v1.8"/><line class="st0" x1="55.1" y1="72.9" x2="69.9" y2="72.9"/><line class="st0" x1="55.1" y1="76.9" x2="69.9" y2="76.9"/><line class="st0" x1="55.1" y1="81" x2="65.1" y2="81"/><text x="0" y="115" fill="#000000" font-size="5px" font-weight="bold" font-family="'Helvetica Neue', Helvetica, Arial-Unicode, Arial, Sans-serif">Created by Samet Kuru</text><text x="0" y="120" fill="#000000" font-size="5px" font-weight="bold" font-family="'Helvetica Neue', Helvetica, Arial-Unicode, Arial, Sans-serif">from the Noun Project</text></svg>