<svg xmlns="http://www.w3.org/2000/svg" xmlns:xlink="http://www.w3.org/1999/xlink" version="1.1" x="0px" y="0px" viewBox="0 0 100 125" style="enable-background:new 0 0 100 100;" xml:space="preserve"><path d="M71.3,69.1l0.4-0.5c6-7,9.3-15.8,9.3-25c0-21.1-17.2-38.3-38.3-38.3C21.6,5.2,4.5,22.4,4.5,43.6s17.2,38.3,38.3,38.3  c8.6,0,16.8-2.8,23.6-8.1l0.4-0.3L92,93.8l3.9-4.8L71.3,69.1z M42.8,75.7c-17.7,0-32.1-14.4-32.1-32.1c0-17.7,14.4-32.1,32.1-32.1  c17.7,0,32.1,14.4,32.1,32.1C74.9,61.3,60.5,75.7,42.8,75.7z"/><polygon points="21.7,54.3 26.5,58.5 36.3,47.3 45,53.1 56.2,41.4 61.5,44.7 60.5,29.7 45.6,34.8 50.7,37.9 44.1,44.9 35.2,38.9 "/><text x="0" y="115" fill="#000000" font-size="5px" font-weight="bold" font-family="'Helvetica Neue', Helvetica, Arial-Unicode, Arial, Sans-serif">Created by Aneeque Ahmed</text><text x="0" y="120" fill="#000000" font-size="5px" font-weight="bold" font-family="'Helvetica Neue', Helvetica, Arial-Unicode, Arial, Sans-serif">from the Noun Project</text></svg>