<svg xmlns="http://www.w3.org/2000/svg" xmlns:xlink="http://www.w3.org/1999/xlink" version="1.1" x="0px" y="0px" viewBox="0 0 100 125" style="enable-background:new 0 0 100 100;" xml:space="preserve"><path d="M64.8,9.9h-2.5c-0.3,0-0.5-0.2-0.5-0.5s0.2-0.5,0.5-0.5h2.5c0.3,0,0.5,0.2,0.5,0.5S65.1,9.9,64.8,9.9z"/><path d="M61.3,7.2c-0.1,0-0.3-0.1-0.4-0.2c-0.2-0.2-0.2-0.6,0-0.8l1.8-1.8c0.2-0.2,0.6-0.2,0.8,0  c0.2,0.2,0.2,0.6,0,0.8L61.7,7C61.6,7.1,61.5,7.2,61.3,7.2z"/><path d="M63.1,14.6c-0.1,0-0.3-0.1-0.4-0.2l-1.8-1.8c-0.2-0.2-0.2-0.6,0-0.8c0.2-0.2,0.6-0.2,0.8,0l1.8,1.8  c0.2,0.2,0.2,0.6,0,0.8C63.4,14.6,63.2,14.6,63.1,14.6z"/><path d="M58.5,7.3V2.1c0-0.2-0.1-0.4-0.4-0.5c-0.2-0.1-0.5,0-0.6,0.2c0,0-3.4,4-10,4l-6.3,0c-0.8,0-1.5,0.4-1.9,1  c0,0,0,0-0.1,0h-1.1c-0.4,0-0.7,0.3-0.7,0.7v4c0,0.4,0.3,0.7,0.7,0.7h1.1c0,0,0,0,0,0c0.3,0.4,0.8,0.7,1.3,0.9l3.3,8.7  c0.1,0.3,0.4,0.6,0.8,0.6h3.2c0.3,0,0.6-0.2,0.8-0.5c0.1-0.3,0.1-0.7-0.1-0.9l-1.7-1.9l-2.2-5.8l2.9,0c6.6,0,10,4,10,4  c0.1,0.1,0.3,0.2,0.4,0.2c0.1,0,0.1,0,0.2,0c0.2-0.1,0.4-0.3,0.4-0.5v-5.2c1-0.2,1.7-1.1,1.7-2.2S59.5,7.5,58.5,7.3z"/><path d="M12,67.6c-1.6-4.5-2.6-9.3-2.6-14.3c0-16.7,9.9-31,24.1-37.6v-4.4C17.1,18,5.4,34.3,5.4,53.2  c0,6.2,1.2,12.1,3.5,17.4L12,67.6z"/><g><path d="M92.2,53.2c0,4.6-0.8,9-2.1,13.1l3.2,3.2c2-5.1,3-10.6,3-16.3c0-19.2-11.9-35.6-28.8-42.3v4.4   C82.1,21.8,92.2,36.4,92.2,53.2z"/><path d="M67,91.4c-5,2.1-10.4,3.3-16.2,3.3c-5.3,0-10.4-1-15.1-2.8l-3.1,3.1c5.6,2.4,11.7,3.8,18.1,3.8   c6.9,0,13.4-1.5,19.2-4.3L67,91.4z"/></g><path d="M33.3,61.8v7.9h35.2v-7.9c0-4.8-3.8-8.5-8.5-8.5H41.8C37.2,53.3,33.3,57.1,33.3,61.8z"/><path d="M50.8,49.8c5.4,0,9.8-4.4,9.8-9.8c0-5.4-4.4-9.8-9.8-9.8s-9.8,4.4-9.8,9.8C41.1,45.4,45.4,49.8,50.8,49.8z"/><path d="M94.2,78.5c-1.6-6-7.7-9.6-13.8-8c-6,1.6-9.6,7.7-8,13.8c0.8,2.9,2.5,5.2,4.8,6.6l-3,4.5l11.9-3.1  C92.2,90.7,95.8,84.5,94.2,78.5z M84,85.6h-6v-1.8h6V85.6z M89.2,82H78v-1.8h11.2V82z M89.2,78.6H78v-1.8h11.2V78.6z"/><rect x="8.4" y="78.9" width="4" height="10.9"/><polyline points="14.4,78.8 20.3,72.1 22.8,72.6 21,78.3 29.8,78.3 27.4,89.8 14.4,89.8 "/><text x="0" y="115" fill="#000000" font-size="5px" font-weight="bold" font-family="'Helvetica Neue', Helvetica, Arial-Unicode, Arial, Sans-serif">Created by Aneeque Ahmed</text><text x="0" y="120" fill="#000000" font-size="5px" font-weight="bold" font-family="'Helvetica Neue', Helvetica, Arial-Unicode, Arial, Sans-serif">from the Noun Project</text></svg>