<svg id="Layer_1" data-name="Layer 1" xmlns="http://www.w3.org/2000/svg" viewBox="0 0 212.68 235.51"><defs><style>.cls-1{fill:none;stroke:#000;stroke-miterlimit:10;stroke-width:3px;}</style></defs><title>body</title><path id="body-outline" class="cls-1" d="M21,253s5.84-22.19,5.34-28c0,0,1.91-13.24,1.14-17.91s-.4-14.12.18-18c0,0,4.78-15,6.43-20.81,0,0,1.78-16.52,9.27-19.67,0,0,36.08-14.25,38.5-16,0,0,12.45-3.28,13.72-8.39l1.78-2-1.27-10.59s-2.8-4.92-3.3-15.64a21.1,21.1,0,0,1-7-3.91,26.06,26.06,0,0,1-2.16-9S82,75.19,83,72.42a10.76,10.76,0,0,1,1-3.15s-7-11.1,0-17.78c0,0,0-7.82,8-16.65,0,0,5.46-10.21,22.36-11.1,0,0,23.63-6.43,25.41,5.42,0,0,4.45-.63,5.08,2.9a4,4,0,0,1,3.68,4.16s3.3,2.77,3.3,4.16c0,0,6.73,2.65,5.08,9.84a8.72,8.72,0,0,0,1.4,6.43s1.91,2.4,4.19,1.26c0,0-3.18,4.79-6.1-2.27,0,0-3,2.52,1.4,5.67l3.43.63s-2.29,2.14-5.34-.88L155.8,64a16,16,0,0,1,1.4,7.31s4.19,2.52,1.52,8.83c0,0-1,2.14-1.27,8.32,0,0-1.27,7.06-6.61,7.69,0,0-2.41,14.25-4.83,17.65l-.64,5.17a10,10,0,0,1,1.91,2.9s7.5,1.26,9.78,6.43c0,0,7.75,7.69,13.59,8.7,0,0,27.06,13.87,31.64,16.52,0,0,6.73,5.3,9.53,7.82,0,0,5.84,1.13,7.11,9.33l6.23,51.45L230,254.5Z" transform="translate(-19.06 -20.5)"/></svg>